<?xml version="1.0" encoding="iso-8859-1"?>
<!-- Generator: Adobe Illustrator 19.0.0, SVG Export Plug-In . SVG Version: 6.00 Build 0)  -->
<svg version="1.1" id="Capa_1" xmlns="http://www.w3.org/2000/svg" xmlns:xlink="http://www.w3.org/1999/xlink" x="0px" y="0px"
	 viewBox="0 0 410.366 410.366" style="enable-background:new 0 0 410.366 410.366;" xml:space="preserve">
<g>
	<g>
		<path d="M369.975,204.4c0-55.44,39.44-65.28,39.44-115.36c0.11-49.065-39.575-88.929-88.64-89.04c-0.067,0-0.133,0-0.2,0v0
			c-49.065-0.022-88.858,39.735-88.88,88.8c0,0.027,0,0.053,0,0.08c0,50.12,39.44,60,39.44,115.36s-39.44,65.24-39.44,115.36
			c-1.041,49.076,37.899,89.704,86.975,90.745c49.076,1.041,89.704-37.899,90.745-86.975c0.027-1.257,0.027-2.514,0-3.77
			c0.023-15.566-4.359-30.82-12.64-44C383.495,253,369.975,238.24,369.975,204.4z M285.182,53.246
			c19.595-19.614,51.38-19.629,70.994-0.034c9.433,9.424,14.729,22.213,14.72,35.547c-0.072,27.747-22.623,50.182-50.37,50.11
			c-13.238-0.034-25.927-5.292-35.31-14.63C265.602,104.645,265.587,72.86,285.182,53.246z M320.615,369.8
			c-27.725,0.022-50.218-22.435-50.24-50.16c-0.022-27.725,22.435-50.218,50.16-50.24c0.013,0,0.027,0,0.04,0
			c27.709,0.022,50.167,22.474,50.2,50.181C370.785,347.296,348.333,369.778,320.615,369.8z"/>
	</g>
</g>
<g>
	<g>
		<path d="M220.415,310.76c1.76-17.92,6.68-29.68,16.72-45.92c-10.276,3.621-21.105,5.422-32,5.32c-55.48,0-65.28-39.4-115.36-39.4
			c-49.087,0.02-88.864,39.828-88.845,88.915c0.02,49.059,39.785,88.825,88.845,88.845l0.08-0.04c50.12,0,60-39.44,115.36-39.44
			c10.454-0.103,20.851,1.547,30.76,4.88C224.043,355.126,218.579,332.947,220.415,310.76z M89.855,369.8
			c-27.703,0-50.16-22.457-50.16-50.16c0-0.013,0-0.027,0-0.04c0-27.709,22.451-50.178,50.16-50.2v0
			c27.725,0.01,50.192,22.494,50.181,50.219C140.026,347.329,117.565,369.79,89.855,369.8z"/>
	</g>
</g>
<g>
</g>
<g>
</g>
<g>
</g>
<g>
</g>
<g>
</g>
<g>
</g>
<g>
</g>
<g>
</g>
<g>
</g>
<g>
</g>
<g>
</g>
<g>
</g>
<g>
</g>
<g>
</g>
<g>
</g>
</svg>
