<?xml version="1.0" encoding="iso-8859-1"?>
<!-- Generator: Adobe Illustrator 19.0.0, SVG Export Plug-In . SVG Version: 6.00 Build 0)  -->
<svg version="1.1" id="Capa_1" xmlns="http://www.w3.org/2000/svg" xmlns:xlink="http://www.w3.org/1999/xlink" x="0px" y="0px"
	 viewBox="0 0 512 512" style="enable-background:new 0 0 512 512;" xml:space="preserve">
<g>
	<g>
		<path d="M408.5,207v-59.833h-42.459v-32.27h-30v32.27h-42.46V207H271V93h-36.419V34h-48.667V0h-30v34h-48.666v59h-36.42v419
			h370.344V207H408.5z M157.414,457.333h-30V427h30V457.333z M157.414,401.333h-30V371h30V401.333z M157.414,345.333h-30V315h30
			V345.333z M157.414,289.333h-30V259h30V289.333z M157.414,233.333h-30V203h30V233.333z M157.414,177.333h-30V147h30V177.333z
			 M214.414,457.333h-30V427h30V457.333z M214.414,401.333h-30V371h30V401.333z M214.414,345.333h-30V315h30V345.333z
			 M214.414,289.333h-30V259h30V289.333z M214.414,233.333h-30V203h30V233.333z M214.414,177.333h-30V147h30V177.333z
			 M334.919,457.333h-30V427h30V457.333z M334.919,401.333h-30V371h30V401.333z M334.919,345.333h-30V315h30V345.333z
			 M334.919,289.333h-30V259h30V289.333z M391.919,457.333h-30V427h30V457.333z M391.919,401.333h-30V371h30V401.333z
			 M391.919,345.333h-30V315h30V345.333z M391.919,289.333h-30V259h30V289.333z"/>
	</g>
</g>
<g>
</g>
<g>
</g>
<g>
</g>
<g>
</g>
<g>
</g>
<g>
</g>
<g>
</g>
<g>
</g>
<g>
</g>
<g>
</g>
<g>
</g>
<g>
</g>
<g>
</g>
<g>
</g>
<g>
</g>
</svg>
