<?xml version="1.0" encoding="iso-8859-1"?>
<!-- Generator: Adobe Illustrator 19.0.0, SVG Export Plug-In . SVG Version: 6.00 Build 0)  -->
<svg version="1.1" id="Capa_1" xmlns="http://www.w3.org/2000/svg" xmlns:xlink="http://www.w3.org/1999/xlink" x="0px" y="0px"
	 viewBox="0 0 512 512" style="enable-background:new 0 0 512 512;" xml:space="preserve">
<g>
	<g>
		<path d="M492.246,184.322l-3.855-9.639c-13.581-33.955-33.419-64.441-58.959-90.613c-25.542-26.172-55.536-46.747-89.143-61.15
			l-0.97-0.416C299.301,5.354,255.191-2.179,211.745,0.716c-36.117,2.408-70.911,11.7-103.421,27.619
			C75.816,44.254,47.139,66.043,23.093,93.097L0,119.075v24.693h66.036c32.079-27.213,70.648-46.007,111.901-54.474
			c43.143-8.855,88.03-6.174,129.811,7.753l4.577,1.525c52.909,17.637,98.566,50.746,122.132,88.567
			c12.855,20.63,22.882,39.745,29.49,53.197c24.076-12.536,36.573-24.782,37.449-25.658L512,204.077L492.246,184.322z"/>
	</g>
</g>
<g>
	<g>
		<path d="M409.008,202.998c-19.987-32.078-59.674-60.481-106.162-75.977l-4.577-1.525c-74.751-24.917-157.776-7.877-216.67,44.472
			l-4.261,3.787H0v52.978c0,47.797,14.863,74.14,22.658,84.668v43.613H67.64v43.923h38.983c10.46,0,20.271-2.812,28.736-7.702
			l23.242,23.241v15.78c0,17.726,10.707,32.989,25.989,39.688v41.945h29.987v-40.21c17.726-5.429,30.654-21.943,30.654-41.423
			v-18.88l99.197-144.285c17.19-0.067,33.206-0.634,46.875-2.912c17.029-2.838,32.057-7.031,45.135-11.787
			C430.153,239.677,420.783,221.896,409.008,202.998z M222.205,391.941h-43.732v-0.001l-21.909-21.909
			c3.638-6.296,6.13-13.334,7.162-20.835l43.188-32.391V275.58c33.459-7.975,68.783-8.78,101.247-8.665L222.205,391.941z"/>
	</g>
</g>
<g>
</g>
<g>
</g>
<g>
</g>
<g>
</g>
<g>
</g>
<g>
</g>
<g>
</g>
<g>
</g>
<g>
</g>
<g>
</g>
<g>
</g>
<g>
</g>
<g>
</g>
<g>
</g>
<g>
</g>
</svg>
