<?xml version="1.0" encoding="iso-8859-1"?>
<!-- Generator: Adobe Illustrator 19.0.0, SVG Export Plug-In . SVG Version: 6.00 Build 0)  -->
<svg version="1.1" id="Capa_1" xmlns="http://www.w3.org/2000/svg" xmlns:xlink="http://www.w3.org/1999/xlink" x="0px" y="0px"
	 viewBox="0 0 365.884 365.884" style="enable-background:new 0 0 365.884 365.884;" xml:space="preserve">
<g>
	<g>
		<path d="M48.944,354.185l-3.56-3.8c-8.5,3.347-18.177,1.337-24.64-5.12l-0.32-0.28c-6.196-6.482-8.069-15.97-4.8-24.32l-4-4
			c-2.304-2.281-4.126-5.002-5.36-8c-9.668,14.333-8,33.474,4,45.92l0.36,0.4c12.382,12.361,31.765,14.269,46.32,4.56
			C53.945,358.313,51.225,356.49,48.944,354.185z"/>
	</g>
</g>
<g>
	<g>
		<path d="M358.984,79.065h-40c-3.811,0-6.9,3.089-6.9,6.9c0,3.811,3.089,6.9,6.9,6.9h40c3.811,0,6.9-3.089,6.9-6.9
			C365.884,82.155,362.795,79.065,358.984,79.065z"/>
	</g>
</g>
<g>
	<g>
		<path d="M354.694,152.207c-0.28-1.297-0.93-2.485-1.87-3.421l-67.76-67.8l-67.76-67.8c-2.69-2.684-7.046-2.679-9.73,0.011
			c-0.829,0.831-1.431,1.859-1.75,2.989l-31.68,112.88c0.344-0.979,0.904-1.868,1.64-2.6l-1.64,2.6c-0.394,1.304-0.394,2.696,0,4
			l-155.88,155.72c-5.939,5.975-5.939,15.625,0,21.6l37.4,37.4c5.975,5.939,15.625,5.939,21.6,0l155.72-155.72
			c1.166,0.314,2.394,0.314,3.56,0l112.88-31.68C353.138,159.582,355.497,155.92,354.694,152.207z M184.466,200.583
			c-0.014,0.014-0.028,0.028-0.042,0.043h0l-44.84,44.84c-1.921,1.922-5.036,1.923-6.958,0.002
			c-0.001-0.001-0.001-0.001-0.002-0.002l-12-12c-1.922-1.921-1.923-5.036-0.002-6.958c0.001-0.001,0.001-0.001,0.002-0.002
			l44.8-44.88c1.921-1.922,5.036-1.923,6.958-0.002c0.001,0.001,0.001,0.001,0.002,0.002l12,12
			C186.328,195.524,186.365,198.639,184.466,200.583z"/>
	</g>
</g>
<g>
	<g>
		<path d="M280.084,0.165c-3.811,0-6.9,3.089-6.9,6.9v40c0,3.811,3.089,6.9,6.9,6.9c3.811,0,6.9-3.089,6.9-6.9v-40
			C286.984,3.255,283.895,0.165,280.084,0.165z"/>
	</g>
</g>
<g>
	<g>
		<path d="M341.647,25.385c-2.402-2.945-6.735-3.385-9.68-0.983c-0.36,0.294-0.689,0.623-0.983,0.983l-28.2,28.2
			c-2.695,2.695-2.695,7.065,0,9.76c2.695,2.695,7.065,2.695,9.76,0h-0.12l28.24-28.28C343.609,32.664,344.049,28.33,341.647,25.385
			z"/>
	</g>
</g>
<g>
</g>
<g>
</g>
<g>
</g>
<g>
</g>
<g>
</g>
<g>
</g>
<g>
</g>
<g>
</g>
<g>
</g>
<g>
</g>
<g>
</g>
<g>
</g>
<g>
</g>
<g>
</g>
<g>
</g>
</svg>
